<?xml version="1.0" standalone="no"?><!DOCTYPE svg PUBLIC "-//W3C//DTD SVG 1.1//EN" "http://www.w3.org/Graphics/SVG/1.1/DTD/svg11.dtd"><svg xmlns:xlink="http://www.w3.org/1999/xlink" version="1.1" style="font-family:'unica one', sans-serif;font-size:12px;" xmlns="http://www.w3.org/2000/svg" width="600" height="400"><desc>Created with Highcharts 4.2.7</desc><defs><clipPath id="highcharts-32"><rect x="1" y="1" width="497" height="291"></rect></clipPath></defs><rect x="1" y="1" width="598" height="398" fill="none" class=" highcharts-background"></rect><rect x="91" y="36" width="499" height="293" fill="#ffffff"></rect><path fill="rgb(255, 255, 255)" fill-opacity=" .5" d="M 91 329.5 L 590 329.5 590 270.5 91 270.5"></path><path fill="rgb(255, 255, 255)" fill-opacity=" .5" d="M 91 212.5 L 590 212.5 590 153.5 91 153.5"></path><path fill="rgb(255, 255, 255)" fill-opacity=" .5" d="M 91 95.5 L 590 95.5 590 36.5 91 36.5"></path><g class="highcharts-grid"></g><g class="highcharts-grid"><path fill="none" d="M 91 329.5 L 590 329.5" stroke="#C0C0C0" stroke-width="1" opacity="1"></path><path fill="none" d="M 91 270.5 L 590 270.5" stroke="#C0C0C0" stroke-width="1" opacity="1"></path><path fill="none" d="M 91 212.5 L 590 212.5" stroke="#C0C0C0" stroke-width="1" opacity="1"></path><path fill="none" d="M 91 153.5 L 590 153.5" stroke="#C0C0C0" stroke-width="1" opacity="1"></path><path fill="none" d="M 91 95.5 L 590 95.5" stroke="#C0C0C0" stroke-width="1" opacity="1"></path><path fill="none" d="M 91 35.5 L 590 35.5" stroke="#C0C0C0" stroke-width="1" opacity="1"></path></g><rect x="91" y="36" width="499" height="293" stroke="#026FC1" stroke-width="2" fill="none"></rect><g class="highcharts-axis"><path fill="none" d="M 152.5 329 L 152.5 339" stroke="#C0D0E0" stroke-width="1" opacity="1"></path><path fill="none" d="M 215.5 329 L 215.5 339" stroke="#C0D0E0" stroke-width="1" opacity="1"></path><path fill="none" d="M 277.5 329 L 277.5 339" stroke="#C0D0E0" stroke-width="1" opacity="1"></path><path fill="none" d="M 340.5 329 L 340.5 339" stroke="#C0D0E0" stroke-width="1" opacity="1"></path><path fill="none" d="M 402.5 329 L 402.5 339" stroke="#C0D0E0" stroke-width="1" opacity="1"></path><path fill="none" d="M 464.5 329 L 464.5 339" stroke="#C0D0E0" stroke-width="1" opacity="1"></path><path fill="none" d="M 527.5 329 L 527.5 339" stroke="#C0D0E0" stroke-width="1" opacity="1"></path><path fill="none" d="M 590.5 329 L 590.5 339" stroke="#C0D0E0" stroke-width="1" opacity="1"></path><path fill="none" d="M 90.5 329 L 90.5 339" stroke="#C0D0E0" stroke-width="1" opacity="1"></path><path fill="none" d="M 91 329.5 L 590 329.5" stroke="#C0D0E0" stroke-width="1"></path></g><g class="highcharts-axis"><path fill="none" d="M 91 329.5 L 81 329.5" stroke="#C0D0E0" stroke-width="1" opacity="1"></path><path fill="none" d="M 91 270.5 L 81 270.5" stroke="#C0D0E0" stroke-width="1" opacity="1"></path><path fill="none" d="M 91 212.5 L 81 212.5" stroke="#C0D0E0" stroke-width="1" opacity="1"></path><path fill="none" d="M 91 153.5 L 81 153.5" stroke="#C0D0E0" stroke-width="1" opacity="1"></path><path fill="none" d="M 91 95.5 L 81 95.5" stroke="#C0D0E0" stroke-width="1" opacity="1"></path><path fill="none" d="M 91 35.5 L 81 35.5" stroke="#C0D0E0" stroke-width="1" opacity="1"></path><text x="21.046875" text-anchor="middle" transform="translate(0,0) rotate(270 21.046875 182.5)" class=" highcharts-yaxis-title" style="color:#000000;font-size:10px;font-family:'arial', sans-serif;text-transform:none;font-weight:normal;fill:#000000;" y="182.5"><tspan>time of execution</tspan></text></g><g class="highcharts-series-group"><g class="highcharts-series highcharts-series-0" transform="translate(91,36) scale(1 1)" clip-path="url(#highcharts-32)"><rect x="0" y="59" width="62" height="235" fill="#2a561d" rx="0" ry="0"></rect><rect x="62" y="162" width="63" height="132" fill="#20631b" rx="0" ry="0"></rect><rect x="125" y="186" width="62" height="108" fill="#049234" rx="0" ry="0"></rect><rect x="187" y="204" width="63" height="90" fill="#00b83e" rx="0" ry="0"></rect><rect x="250" y="216" width="62" height="78" fill="#64e572" rx="0" ry="0"></rect><rect x="312" y="221" width="62" height="73" fill="#85ff55" rx="0" ry="0"></rect><rect x="374" y="232" width="63" height="62" fill="#bfff63" rx="0" ry="0"></rect><rect x="437" y="235" width="62" height="59" fill="#c3ffb5" rx="0" ry="0"></rect></g><g class="highcharts-markers highcharts-series-0" transform="translate(91,36) scale(1 1)" clip-path="none"></g><g class="highcharts-series highcharts-series-1" transform="translate(91,36) scale(1 1)" clip-path="url(#highcharts-32)"></g><g class="highcharts-markers highcharts-series-1" transform="translate(91,36) scale(1 1)" clip-path="none"></g></g><text x="300" text-anchor="middle" class="highcharts-title" style="color:#000000;font-size:10px;font-family:'arial', sans-serif;text-transform:none;font-weight:bold;fill:#000000;width:536px;" y="17"><tspan>Results</tspan></text><g class="highcharts-data-labels highcharts-series-0" transform="translate(91,36) scale(1 1)" opacity="1"><g style="cursor:pointer;" transform="translate(4,38)"><text x="5" style="font-size:10px;font-weight:bold;font-family:'arial', sans-serif;color:#000000;text-shadow:none;fill:#000000;text-rendering:geometricprecision;" y="15"><tspan>20066570</tspan></text></g><g style="cursor:pointer;" transform="translate(66,141)"><text x="5" style="font-size:10px;font-weight:bold;font-family:'arial', sans-serif;color:#000000;text-shadow:none;fill:#000000;text-rendering:geometricprecision;" y="15"><tspan>11227928</tspan></text></g><g style="cursor:pointer;" transform="translate(131,165)"><text x="5" style="font-size:10px;font-weight:bold;font-family:'arial', sans-serif;color:#000000;text-shadow:none;fill:#000000;text-rendering:geometricprecision;" y="15"><tspan>9187802</tspan></text></g><g style="cursor:pointer;" transform="translate(194,183)"><text x="5" style="font-size:10px;font-weight:bold;font-family:'arial', sans-serif;color:#000000;text-shadow:none;fill:#000000;text-rendering:geometricprecision;" y="15"><tspan>7654115</tspan></text></g><g style="cursor:pointer;" transform="translate(256,195)"><text x="5" style="font-size:10px;font-weight:bold;font-family:'arial', sans-serif;color:#000000;text-shadow:none;fill:#000000;text-rendering:geometricprecision;" y="15"><tspan>6642242</tspan></text></g><g style="cursor:pointer;" transform="translate(318,200)"><text x="5" style="font-size:10px;font-weight:bold;font-family:'arial', sans-serif;color:#000000;text-shadow:none;fill:#000000;text-rendering:geometricprecision;" y="15"><tspan>6245037</tspan></text></g><g style="cursor:pointer;" transform="translate(381,211)"><text x="5" style="font-size:10px;font-weight:bold;font-family:'arial', sans-serif;color:#000000;text-shadow:none;fill:#000000;text-rendering:geometricprecision;" y="15"><tspan>5331543</tspan></text></g><g style="cursor:pointer;" transform="translate(443,214)"><text x="5" style="font-size:10px;font-weight:bold;font-family:'arial', sans-serif;color:#000000;text-shadow:none;fill:#000000;text-rendering:geometricprecision;" y="15"><tspan>5068097</tspan></text></g></g><g class="highcharts-data-labels highcharts-series-1" transform="translate(91,36) scale(1 1)" opacity="1"></g><g class="highcharts-legend" transform="translate(259,360)"><g><g><g class="highcharts-legend-item" transform="translate(8,3)"><text x="21" style="color:#333;font-size:9pt;font-weight:normal;cursor:pointer;font-family:'lucida grande','lucida sans unicode',arial,helvetica,sans-serif;text-transform:none;fill:#333;" text-anchor="start" y="15"><tspan>Series 1</tspan></text><rect x="0" y="4" width="16" height="12" fill="#CCC"></rect></g></g></g></g><g class="highcharts-axis-labels highcharts-xaxis-labels"><text x="122.1875" style="color:#000000;cursor:default;font-size:10px;font-family:'arial', sans-serif;text-transform:none;font-weight:normal;fill:#000000;" text-anchor="middle" transform="translate(0,0)" y="347" opacity="1"><tspan>1 core</tspan></text><text x="184.5625" style="color:#000000;cursor:default;font-size:10px;font-family:'arial', sans-serif;text-transform:none;font-weight:normal;fill:#000000;" text-anchor="middle" transform="translate(0,0)" y="347" opacity="1"><tspan>2 cores</tspan></text><text x="246.9375" style="color:#000000;cursor:default;font-size:10px;font-family:'arial', sans-serif;text-transform:none;font-weight:normal;fill:#000000;" text-anchor="middle" transform="translate(0,0)" y="347" opacity="1"><tspan>3 cores</tspan></text><text x="309.3125" style="color:#000000;cursor:default;font-size:10px;font-family:'arial', sans-serif;text-transform:none;font-weight:normal;fill:#000000;" text-anchor="middle" transform="translate(0,0)" y="347" opacity="1"><tspan>4 cores</tspan></text><text x="371.6875" style="color:#000000;cursor:default;font-size:10px;font-family:'arial', sans-serif;text-transform:none;font-weight:normal;fill:#000000;" text-anchor="middle" transform="translate(0,0)" y="347" opacity="1"><tspan>5 cores</tspan></text><text x="434.0625" style="color:#000000;cursor:default;font-size:10px;font-family:'arial', sans-serif;text-transform:none;font-weight:normal;fill:#000000;" text-anchor="middle" transform="translate(0,0)" y="347" opacity="1"><tspan>6 cores</tspan></text><text x="496.4375" style="color:#000000;cursor:default;font-size:10px;font-family:'arial', sans-serif;text-transform:none;font-weight:normal;fill:#000000;" text-anchor="middle" transform="translate(0,0)" y="347" opacity="1"><tspan>7 cores</tspan></text><text x="558.8125" style="color:#000000;cursor:default;font-size:10px;font-family:'arial', sans-serif;text-transform:none;font-weight:normal;fill:#000000;" text-anchor="middle" transform="translate(0,0)" y="347" opacity="1"><tspan>8 cores</tspan></text></g><g class="highcharts-axis-labels highcharts-yaxis-labels"><text x="76" style="color:#000000;cursor:default;font-size:10px;font-family:'arial', sans-serif;text-transform:none;font-weight:normal;fill:#000000;width:188px;text-overflow:clip;" text-anchor="end" transform="translate(0,0)" y="334" opacity="1"><tspan>0</tspan></text><text x="76" style="color:#000000;cursor:default;font-size:10px;font-family:'arial', sans-serif;text-transform:none;font-weight:normal;fill:#000000;width:188px;text-overflow:clip;" text-anchor="end" transform="translate(0,0)" y="275" opacity="1"><tspan>5000000</tspan></text><text x="76" style="color:#000000;cursor:default;font-size:10px;font-family:'arial', sans-serif;text-transform:none;font-weight:normal;fill:#000000;width:188px;text-overflow:clip;" text-anchor="end" transform="translate(0,0)" y="216" opacity="1"><tspan>10000000</tspan></text><text x="76" style="color:#000000;cursor:default;font-size:10px;font-family:'arial', sans-serif;text-transform:none;font-weight:normal;fill:#000000;width:188px;text-overflow:clip;" text-anchor="end" transform="translate(0,0)" y="158" opacity="1"><tspan>15000000</tspan></text><text x="76" style="color:#000000;cursor:default;font-size:10px;font-family:'arial', sans-serif;text-transform:none;font-weight:normal;fill:#000000;width:188px;text-overflow:clip;" text-anchor="end" transform="translate(0,0)" y="99" opacity="1"><tspan>20000000</tspan></text><text x="76" style="color:#000000;cursor:default;font-size:10px;font-family:'arial', sans-serif;text-transform:none;font-weight:normal;fill:#000000;width:188px;text-overflow:clip;" text-anchor="end" transform="translate(0,0)" y="41" opacity="1"><tspan>25000000</tspan></text></g><g class="highcharts-tooltip" display="none" style="cursor:default;padding:0;pointer-events:none;white-space:nowrap;" transform="translate(0,0)"><path fill="none" d="M 3.5 0.5 L 13.5 0.5 C 16.5 0.5 16.5 0.5 16.5 3.5 L 16.5 13.5 C 16.5 16.5 16.5 16.5 13.5 16.5 L 3.5 16.5 C 0.5 16.5 0.5 16.5 0.5 13.5 L 0.5 3.5 C 0.5 0.5 0.5 0.5 3.5 0.5"  stroke="black" stroke-opacity="0.049999999999999996" stroke-width="5" transform="translate(1, 1)"></path><path fill="none" d="M 3.5 0.5 L 13.5 0.5 C 16.5 0.5 16.5 0.5 16.5 3.5 L 16.5 13.5 C 16.5 16.5 16.5 16.5 13.5 16.5 L 3.5 16.5 C 0.5 16.5 0.5 16.5 0.5 13.5 L 0.5 3.5 C 0.5 0.5 0.5 0.5 3.5 0.5"  stroke="black" stroke-opacity="0.09999999999999999" stroke-width="3" transform="translate(1, 1)"></path><path fill="none" d="M 3.5 0.5 L 13.5 0.5 C 16.5 0.5 16.5 0.5 16.5 3.5 L 16.5 13.5 C 16.5 16.5 16.5 16.5 13.5 16.5 L 3.5 16.5 C 0.5 16.5 0.5 16.5 0.5 13.5 L 0.5 3.5 C 0.5 0.5 0.5 0.5 3.5 0.5"  stroke="black" stroke-opacity="0.15" stroke-width="1" transform="translate(1, 1)"></path><path fill="rgb(255, 255, 255)" fill-opacity=" 0.85" d="M 3.5 0.5 L 13.5 0.5 C 16.5 0.5 16.5 0.5 16.5 3.5 L 16.5 13.5 C 16.5 16.5 16.5 16.5 13.5 16.5 L 3.5 16.5 C 0.5 16.5 0.5 16.5 0.5 13.5 L 0.5 3.5 C 0.5 0.5 0.5 0.5 3.5 0.5"></path><text x="8" style="font-size:12px;color:#000000;fill:#000000;" y="20"></text></g><text x="590" text-anchor="end" style="cursor:pointer;color:#666;font-size:9px;fill:#666;" y="395">Highcharts.com</text></svg>